Coordinates
version=1
nRows=16
nColumns=63
inDegrees=yes

Units are S.I. units (second, meters, Newtons, ...)
If the header above contains a line with 'inDegrees', this indicates whether rotational values are in degrees (yes) or radians (no).

endheader
time	pelvis_tilt	pelvis_list	pelvis_rotation	pelvis_tx	pelvis_ty	pelvis_tz	hip_flexion_r	hip_adduction_r	hip_rotation_r	knee_angle_r	knee_angle_r_beta	ankle_angle_r	subtalar_angle_r	mtp_angle_r	hip_flexion_l	hip_adduction_l	hip_rotation_l	knee_angle_l	knee_angle_l_beta	ankle_angle_l	subtalar_angle_l	mtp_angle_l	L5_S1_Flex_Ext	L5_S1_Lat_Bending	L5_S1_axial_rotation	L4_L5_Flex_Ext	L4_L5_Lat_Bending	L4_L5_axial_rotation	L3_L4_Flex_Ext	L3_L4_Lat_Bending	L3_L4_axial_rotation	L2_L3_Flex_Ext	L2_L3_Lat_Bending	L2_L3_axial_rotation	L1_L2_Flex_Ext	L1_L2_Lat_Bending	L1_L2_axial_rotation	L1_T12_Flex_Ext	L1_T12_Lat_Bending	L1_T12_axial_rotation	Abs_r3	Abs_r2	Abs_r1	Abs_t1	Abs_t2	neck_flexion	neck_bending	neck_rotation	arm_flex_r	arm_add_r	arm_rot_r	elbow_flex_r	pro_sup_r	wrist_flex_r	wrist_dev_r	arm_flex_l	arm_add_l	arm_rot_l	elbow_flex_l	pro_sup_l	wrist_flex_l	wrist_dev_l
5.550000	0.843849	-2.076849	105.124120	0.218191	0.943064	0.564790	-6.100868	2.456609	-8.988058	5.724068	0.099904	32.681746	-11.808704	0.000000	-3.901759	-2.494112	16.953120	6.222109	0.108596	36.191584	6.371163	0.000000	-0.609744	0.462041	0.599185	-1.132355	0.614514	0.636635	-1.001748	1.123406	0.636635	-0.696876	1.123406	0.524287	-0.566208	0.942194	0.486838	-0.348408	0.715701	0.449389	-4.355339	5.226699	3.332490	0.000000	0.000000	9.838030	-6.878303	-1.190601	-4.332309	-16.235011	34.678509	26.307422	76.107342	-15.560847	-2.798865	2.746831	-17.265338	58.822881	25.923929	88.921824	-24.035888	-10.443358
5.566667	1.010468	-2.070488	105.626180	0.217788	0.942746	0.566139	-6.123042	2.677300	-9.123205	5.437280	0.094898	33.050000	-11.413079	0.000000	-4.086818	-2.809508	17.922171	5.439479	0.094937	36.183917	5.886392	0.000000	-0.604007	0.476754	0.427913	-1.121701	0.634083	0.454658	-0.992323	1.159180	0.454658	-0.690319	1.159180	0.374424	-0.560881	0.972197	0.347680	-0.345129	0.738492	0.320935	-4.314360	5.393140	2.379925	0.000000	0.000000	9.858671	-7.204065	-2.429720	-4.015965	-16.191476	34.955697	26.366193	77.204558	-15.651020	-2.498548	2.649523	-16.773511	63.236029	24.664365	84.272840	-24.121419	-11.827685
5.583333	1.130285	-2.034498	106.077537	0.217590	0.942359	0.567328	-6.198608	2.867657	-9.062808	5.114083	0.089258	33.441763	-11.113812	0.000000	-4.323098	-3.097483	18.659519	4.649209	0.081144	36.252198	5.627233	0.000000	-0.599604	0.484026	0.264658	-1.113524	0.643754	0.281199	-0.985089	1.176860	0.281199	-0.685287	1.176860	0.231576	-0.556792	0.987025	0.215034	-0.342613	0.749756	0.198493	-4.282908	5.475397	1.471947	0.000000	0.000000	9.902195	-7.473734	-3.726678	-3.740446	-16.087620	35.107283	26.390330	78.206978	-15.671076	-2.108937	2.295102	-16.803287	62.533442	24.624428	84.104673	-24.474674	-12.522473
5.600000	1.233728	-1.972337	106.450327	0.217500	0.941989	0.568352	-6.314887	3.049085	-8.808454	4.775337	0.083345	33.756085	-10.963032	0.000000	-4.596984	-3.373223	19.462264	3.878854	0.067699	36.272046	5.137810	0.000000	-0.595626	0.490268	0.114456	-1.106136	0.652057	0.121609	-0.978553	1.192038	0.121609	-0.680741	1.192038	0.100149	-0.553098	0.999755	0.092995	-0.340341	0.759425	0.085842	-4.254495	5.546012	0.636568	0.000000	0.000000	9.936453	-7.739436	-4.999544	-3.495585	-15.960312	35.186442	26.382686	79.296464	-15.646701	-1.628071	1.899889	-16.850449	61.748200	24.597496	84.029323	-24.756786	-13.149924
5.616667	1.311456	-1.888876	106.735967	0.217513	0.941652	0.569180	-6.467869	3.207816	-8.445196	4.440768	0.077506	33.975160	-10.892605	0.000000	-4.899512	-3.615614	20.267827	3.155890	0.055081	36.236588	4.497437	0.000000	-0.592527	0.494407	-0.017490	-1.100381	0.657561	-0.018584	-0.973462	1.202100	-0.018584	-0.677199	1.202100	-0.015304	-0.550220	1.008194	-0.014211	-0.338570	0.765836	-0.013118	-4.232358	5.592828	-0.097276	0.000000	0.000000	9.954211	-7.994530	-6.222325	-3.291669	-15.811742	35.210095	26.356761	80.515711	-15.637082	-1.087429	1.509725	-16.920125	61.073018	24.577683	83.950263	-25.066700	-13.669731
5.633333	1.371106	-1.787327	106.956984	0.217609	0.941359	0.569806	-6.649291	3.350448	-8.077107	4.127714	0.072042	34.084319	-10.854403	0.000000	-5.212268	-3.836167	21.113951	2.511111	0.043827	36.105914	3.668624	0.000000	-0.590490	0.496971	-0.134408	-1.096599	0.660972	-0.142808	-0.970116	1.208336	-0.142808	-0.674871	1.208336	-0.117607	-0.548329	1.013424	-0.109206	-0.337406	0.769809	-0.100806	-4.217811	5.621840	-0.747537	0.000000	0.000000	9.956498	-8.226116	-7.354880	-3.113240	-15.656702	35.273903	26.316605	81.675629	-15.628758	-0.537213	1.110064	-17.009250	60.402375	24.581362	83.940965	-25.388050	-14.080277
5.650000	1.408499	-1.691281	107.074167	0.217824	0.941093	0.570181	-6.839232	3.465076	-7.627948	3.830508	0.066855	34.061307	-10.911480	0.000000	-5.522137	-4.019708	21.967614	1.941316	0.033882	35.856581	2.641200	0.000000	-0.586586	0.496758	-0.227613	-1.089349	0.660688	-0.241839	-0.963702	1.207817	-0.241839	-0.670409	1.207817	-0.199161	-0.544704	1.012989	-0.184936	-0.335175	0.769478	-0.170710	-4.189924	5.619425	-1.265916	0.000000	0.000000	9.959799	-8.420636	-8.351284	-2.990037	-15.485280	35.277660	26.274889	82.574144	-15.506077	0.002260	0.677179	-17.118137	59.623471	24.625301	83.960392	-25.567915	-14.419955
5.666667	1.445840	-1.579213	107.125786	0.218100	0.940893	0.570314	-7.047707	3.583749	-7.110133	3.565637	0.062232	33.899483	-11.138759	0.000000	-5.834687	-4.189563	22.897751	1.470318	0.025662	35.476748	1.358007	0.000000	-0.582992	0.497130	-0.303416	-1.082675	0.661183	-0.322380	-0.957798	1.208722	-0.322380	-0.666302	1.208722	-0.265489	-0.541366	1.013748	-0.246526	-0.333122	0.770055	-0.227562	-4.164254	5.623635	-1.687509	0.000000	0.000000	9.957805	-8.580982	-9.201823	-2.917657	-15.307172	35.219553	26.231141	83.333618	-15.330284	0.523923	0.238424	-17.226823	58.852188	24.688596	83.999883	-25.706316	-14.645834
5.683333	1.485619	-1.460743	107.160210	0.218376	0.940763	0.570224	-7.266563	3.706735	-6.676745	3.327162	0.058070	33.638254	-11.407386	0.000000	-6.132973	-4.352358	23.865345	1.093229	0.019080	34.995913	-0.042946	0.000000	-0.577932	0.498065	-0.372969	-1.073277	0.662427	-0.396279	-0.949484	1.210996	-0.396279	-0.660518	1.210996	-0.326348	-0.536667	1.015655	-0.303037	-0.330230	0.771503	-0.279727	-4.128108	5.634213	-2.074340	0.000000	0.000000	9.964177	-8.676184	-9.877100	-2.888229	-15.119700	35.132518	26.177473	83.728013	-15.040305	1.014971	-0.209742	-17.321251	58.087392	24.752072	83.964502	-25.714857	-14.810269
5.700000	1.528087	-1.334795	107.150533	0.218674	0.940722	0.569906	-7.497198	3.833271	-6.325905	3.110754	0.054293	33.288749	-11.692629	0.000000	-6.427590	-4.505466	24.727841	0.796216	0.013897	34.446664	-1.393673	0.000000	-0.571508	0.499668	-0.432358	-1.061347	0.664558	-0.459381	-0.938930	1.214892	-0.459381	-0.653176	1.214892	-0.378313	-0.530702	1.018922	-0.351291	-0.326560	0.773985	-0.324269	-4.082224	5.652341	-2.404647	0.000000	0.000000	9.980259	-8.719379	-10.364025	-2.893495	-14.931444	35.063672	26.112788	83.651188	-14.656444	1.466721	-0.634563	-17.410335	57.492767	24.790600	83.699948	-25.627064	-14.903341
5.716667	1.566809	-1.223415	107.066754	0.219016	0.940744	0.569422	-7.713899	3.944513	-5.977954	2.916859	0.050909	32.840141	-12.062245	0.000000	-6.692674	-4.631267	25.546481	0.587059	0.010246	33.815151	-2.813661	0.000000	-0.562527	0.501057	-0.481275	-1.044670	0.666406	-0.511355	-0.924176	1.218270	-0.511355	-0.642913	1.218270	-0.421115	-0.522363	1.021756	-0.391036	-0.321428	0.776138	-0.360956	-4.018077	5.668059	-2.676706	0.000000	0.000000	10.017475	-8.663926	-10.588709	-2.928654	-14.741131	34.952004	26.054694	83.132242	-14.171552	1.871983	-1.064774	-17.476677	56.863965	24.836322	83.438983	-25.319235	-14.830646
5.733333	1.603704	-1.112631	106.952722	0.219342	0.940833	0.568811	-7.923336	4.048873	-5.653418	2.765853	0.048273	32.311364	-12.553531	0.000000	-6.948535	-4.740102	26.223370	0.431355	0.007529	33.167566	-4.081310	0.000000	-0.553437	0.502134	-0.531971	-1.027789	0.667838	-0.565219	-0.909242	1.220888	-0.565219	-0.632524	1.220888	-0.465475	-0.513922	1.023951	-0.432226	-0.316234	0.777805	-0.398978	-3.953148	5.680238	-2.958663	0.000000	0.000000	10.066531	-8.552055	-10.663059	-2.935561	-14.569785	35.006543	25.972714	82.248680	-13.708319	2.176958	-1.533852	-17.504492	56.099198	24.886221	83.219139	-24.886533	-14.608761
5.750000	1.621882	-1.021820	106.814651	0.219641	0.940951	0.568130	-8.116668	4.123715	-5.368633	2.644864	0.046162	31.735719	-13.114958	0.000000	-7.162234	-4.803653	26.802446	0.352381	0.006150	32.545143	-5.233778	0.000000	-0.544125	0.500868	-0.592569	-1.010494	0.666154	-0.629605	-0.893943	1.217810	-0.629605	-0.621880	1.217810	-0.518498	-0.505274	1.021369	-0.481462	-0.310913	0.775844	-0.444427	-3.886630	5.665916	-3.295692	0.000000	0.000000	10.155016	-8.355388	-10.520702	-2.877270	-14.424569	35.285856	25.862428	81.224959	-13.378711	2.364749	-2.050743	-17.504614	55.196421	24.932261	83.009218	-24.333546	-14.308380
5.766667	1.617388	-0.956777	106.630283	0.219934	0.941054	0.567396	-8.282395	4.156352	-5.143310	2.570967	0.044872	31.168436	-13.652487	0.000000	-7.348234	-4.812226	27.449289	0.309256	0.005398	31.928207	-6.517961	0.000000	-0.535366	0.496706	-0.657124	-0.994229	0.660619	-0.698194	-0.879554	1.207691	-0.698194	-0.611870	1.207691	-0.574983	-0.497141	1.012883	-0.533913	-0.305908	0.769397	-0.492843	-3.824069	5.618836	-3.654724	0.000000	0.000000	10.290412	-8.062977	-10.179042	-2.866317	-14.263517	35.151759	25.826542	80.782739	-13.079191	2.559021	-2.632019	-17.489674	54.032992	25.015655	82.904738	-23.623104	-13.917119
5.783333	1.585690	-0.923659	106.369327	0.220262	0.941120	0.566641	-8.411906	4.135972	-4.923132	2.542308	0.044372	30.635773	-14.161508	0.000000	-7.496320	-4.762065	27.951613	0.302772	0.005284	31.402092	-7.685984	0.000000	-0.528373	0.488878	-0.720398	-0.981242	0.650207	-0.765423	-0.868064	1.188657	-0.765423	-0.603878	1.188657	-0.630349	-0.490647	0.996919	-0.585324	-0.301912	0.757271	-0.540299	-3.774116	5.530281	-4.006639	0.000000	0.000000	10.486340	-7.665215	-9.645697	-2.861539	-14.111344	34.898493	25.835824	80.444219	-12.850525	2.607759	-3.268335	-17.467757	52.694896	25.143753	82.845651	-22.907238	-13.494735
5.800000	1.527832	-0.916797	106.105541	0.220548	0.941138	0.565895	-8.517540	4.077035	-4.717507	2.539542	0.044323	30.178438	-14.643437	0.000000	-7.606427	-4.672084	28.352603	0.313823	0.005477	30.995835	-8.684207	0.000000	-0.524367	0.477555	-0.795862	-0.973801	0.635148	-0.845603	-0.861482	1.161127	-0.845603	-0.599298	1.161127	-0.696379	-0.486927	0.973830	-0.646638	-0.299623	0.739732	-0.596896	-3.745498	5.402195	-4.426343	0.000000	0.000000	10.725088	-7.203484	-9.006201	-2.853429	-13.972964	34.566426	25.894565	80.258708	-12.670485	2.554324	-3.952033	-17.459907	51.200807	25.342636	82.814528	-22.160425	-13.040375
